<svg xmlns="http://www.w3.org/2000/svg" xmlns:xlink="http://www.w3.org/1999/xlink" version="1.1" x="0px" y="0px" width="15px" height="15px" viewBox="0 0 15 15" enable-background="new 0 0 15 15" xml:space="preserve"><style>.style0{fill:	#157199;}.style1{fill-rule:	evenodd;clip-rule:	evenodd;fill:	#FFFFFF;}</style><g><path display="none" d="M-5.775-8.46c-1.104 0-2 0.896-2 2v28c0 1.1 0.9 2 2 2h29.212v-32H-5.775z" class="style0"/><path d="M14.296 5.391h-0.703h-0.387H11.25 c-0.389 0-0.703-0.314-0.703-0.703s0.314-0.703 0.703-0.703h1.211C11.359 2.4 9.6 1.4 7.5 1.4 c-3.365 0-6.094 2.729-6.094 6.094c0 0.389-0.314 0.703-0.703 0.703S0 7.9 0 7.5C0 3.4 3.4 0 7.5 0 c2.515 0 4.7 1.2 6.1 3.144V1.875c0-0.389 0.314-0.703 0.703-0.703C14.683 1.2 15 1.5 15 1.875v2.813 C15 5.1 14.7 5.4 14.3 5.4 M0.703 9.609H3.75c0.389 0 0.7 0.3 0.7 0.703s-0.314 0.703-0.703 0.703H2.529 c1.102 1.6 2.9 2.6 5 2.578c3.365 0 6.093-2.729 6.093-6.094c0-0.389 0.314-0.703 0.703-0.703 C14.683 6.8 15 7.1 15 7.5c0 4.143-3.357 7.5-7.5 7.5c-2.52 0-4.736-1.246-6.094-3.154v1.279c0 0.389-0.314 0.703-0.703 0.7 S0 13.5 0 13.125v-2.813C0 9.9 0.3 9.6 0.7 9.6" class="style1"/></g></svg>