<?xml version="1.0" encoding="utf-8"?>
<!-- Generator: Adobe Illustrator 16.0.0, SVG Export Plug-In . SVG Version: 6.00 Build 0)  -->
<!DOCTYPE svg PUBLIC "-//W3C//DTD SVG 1.1//EN" "http://www.w3.org/Graphics/SVG/1.1/DTD/svg11.dtd">
<svg version="1.1" id="Layer_1" xmlns="http://www.w3.org/2000/svg" xmlns:xlink="http://www.w3.org/1999/xlink" x="0px" y="0px"
	 width="29.161px" height="30.596px" viewBox="0 0 29.161 30.596" enable-background="new 0 0 29.161 30.596" xml:space="preserve">
<path fill-rule="evenodd" clip-rule="evenodd" fill="#FFFFFF" d="M28.741,26.352l-3.825,3.824c-0.259,0.26-0.617,0.42-1.014,0.42
	c-0.396,0-0.754-0.16-1.014-0.42l-1.912-1.912c-0.26-0.26-0.42-0.619-0.42-1.016c0-0.791,0.642-1.434,1.434-1.434
	c0.396,0,0.754,0.16,1.014,0.42l0.898,0.898l2.811-2.811c0.26-0.26,0.617-0.42,1.014-0.42c0.793,0,1.435,0.643,1.435,1.434
	C29.161,25.732,29,26.092,28.741,26.352 M23.884,25.123c-0.503-0.455-1.159-0.742-1.894-0.742c-1.584,0-2.868,1.283-2.868,2.867
	c0,0.795,0.327,1.506,0.849,2.021l-0.009,0.008l1.318,1.318H1.434C0.643,30.596,0,29.953,0,29.162V4.303
	C0,3.51,0.643,2.869,1.434,2.869h2.391v1.434c0,1.584,1.284,2.867,2.869,2.867c1.584,0,2.867-1.283,2.867-2.867V2.869h1.435v1.434
	c0,1.584,1.284,2.867,2.868,2.867s2.869-1.283,2.869-2.867V2.869h1.434v1.434c0,1.584,1.284,2.867,2.868,2.867
	c1.585,0,2.868-1.283,2.868-2.867V2.869h2.391c0.792,0,1.434,0.641,1.434,1.434v18.166c-0.791,0-1.509,0.32-2.028,0.84
	L23.884,25.123z M3.824,24.619c0,0.66,0.535,1.195,1.195,1.195h9.083c0.66,0,1.195-0.535,1.195-1.195s-0.535-1.195-1.195-1.195H5.02
	C4.359,23.424,3.824,23.959,3.824,24.619 M22.469,10.996H5.259c-0.792,0-1.435,0.641-1.435,1.434c0,0.791,0.643,1.434,1.435,1.434
	h17.21c0.792,0,1.434-0.643,1.434-1.434C23.902,11.637,23.261,10.996,22.469,10.996 M22.469,17.209h-8.605h-2.391H5.259
	c-0.792,0-1.435,0.643-1.435,1.436c0,0.791,0.643,1.434,1.435,1.434h6.214h2.391h8.605c0.792,0,1.434-0.643,1.434-1.434
	C23.902,17.852,23.261,17.209,22.469,17.209 M21.034,5.736c-0.792,0-1.435-0.641-1.435-1.434V1.434C19.6,0.643,20.242,0,21.034,0
	s1.435,0.643,1.435,1.434v2.869C22.469,5.096,21.826,5.736,21.034,5.736 M13.863,5.736c-0.792,0-1.434-0.641-1.434-1.434V1.434
	C12.43,0.643,13.071,0,13.863,0c0.793,0,1.435,0.643,1.435,1.434v2.869C15.298,5.096,14.656,5.736,13.863,5.736 M6.693,5.736
	c-0.793,0-1.435-0.641-1.435-1.434V1.434C5.259,0.643,5.9,0,6.693,0c0.791,0,1.434,0.643,1.434,1.434v2.869
	C8.127,5.096,7.484,5.736,6.693,5.736"/>
</svg>
