<?xml version="1.0" encoding="utf-8"?>
<!-- Generator: Adobe Illustrator 16.0.0, SVG Export Plug-In . SVG Version: 6.00 Build 0)  -->
<!DOCTYPE svg PUBLIC "-//W3C//DTD SVG 1.1//EN" "http://www.w3.org/Graphics/SVG/1.1/DTD/svg11.dtd">
<svg version="1.1" id="Layer_1" xmlns="http://www.w3.org/2000/svg" xmlns:xlink="http://www.w3.org/1999/xlink" x="0px" y="0px"
	 width="15px" height="15px" viewBox="0 0 15 15" enable-background="new 0 0 15 15" xml:space="preserve">
<g>
	<path display="none" fill="#157199" d="M-5.775-8.46c-1.104,0-2,0.896-2,2v28c0,1.104,0.896,2,2,2h29.212v-32H-5.775z"/>
	<path fill-rule="evenodd" clip-rule="evenodd" fill="#FFFFFF" d="M14.296,5.391h-0.703h-0.387H11.25
		c-0.389,0-0.703-0.314-0.703-0.703s0.314-0.703,0.703-0.703h1.211C11.359,2.428,9.552,1.406,7.5,1.406
		c-3.365,0-6.094,2.729-6.094,6.094c0,0.389-0.314,0.703-0.703,0.703S0,7.889,0,7.5C0,3.357,3.357,0,7.5,0
		c2.515,0,4.734,1.242,6.093,3.144V1.875c0-0.389,0.314-0.703,0.703-0.703C14.683,1.172,15,1.486,15,1.875v2.813
		C15,5.076,14.683,5.391,14.296,5.391 M0.703,9.609H3.75c0.389,0,0.703,0.314,0.703,0.703s-0.314,0.703-0.703,0.703H2.529
		c1.102,1.561,2.916,2.578,4.971,2.578c3.365,0,6.093-2.729,6.093-6.094c0-0.389,0.314-0.703,0.703-0.703
		C14.683,6.797,15,7.111,15,7.5c0,4.143-3.357,7.5-7.5,7.5c-2.52,0-4.736-1.246-6.094-3.154v1.279c0,0.389-0.314,0.703-0.703,0.703
		S0,13.514,0,13.125v-2.813C0,9.924,0.314,9.609,0.703,9.609"/>
</g>
</svg>
